<?xml version="1.0" standalone="no"?>
<!DOCTYPE svg PUBLIC "-//W3C//DTD SVG 20010904//EN"
 "http://www.w3.org/TR/2001/REC-SVG-20010904/DTD/svg10.dtd">
<svg version="1.0" xmlns="http://www.w3.org/2000/svg"
 width="2000.000000pt" height="2000.000000pt" viewBox="0 0 2000.000000 2000.000000"
 preserveAspectRatio="xMidYMid meet">

<g transform="translate(0.000000,2000.000000) scale(0.100000,-0.100000)"
fill="#000000" stroke="none">
<path d="M6745 19690 c-17 -19 -18 -25 -6 -53 7 -18 17 -52 22 -76 8 -39 6
-48 -17 -78 -14 -18 -29 -33 -35 -33 -5 0 -35 -25 -65 -56 -40 -40 -61 -53
-72 -48 -40 16 -62 15 -91 -5 -16 -12 -45 -21 -64 -21 -30 0 -41 -7 -77 -51
-47 -55 -113 -94 -200 -116 -94 -25 -106 -25 -138 -9 -47 24 -112 21 -152 -9
-19 -14 -45 -25 -59 -25 -79 -1 -101 -33 -101 -148 0 -124 -9 -125 -131 -7
-111 108 -115 109 -202 66 -31 -15 -45 -17 -80 -9 -23 5 -67 7 -97 4 l-55 -6
-33 46 c-40 54 -47 57 -182 78 -58 10 -115 22 -128 29 -19 9 -29 8 -50 -4 -23
-12 -27 -22 -30 -67 -2 -33 3 -64 13 -86 18 -37 86 -99 121 -110 12 -4 45 -31
73 -61 l51 -54 0 -112 0 -113 45 -92 c25 -51 50 -96 56 -99 7 -5 8 -27 4 -65
-6 -51 -4 -61 14 -79 19 -19 32 -21 157 -21 l135 0 -3 -27 c-2 -23 -15 -34
-72 -65 -39 -20 -94 -41 -124 -47 -59 -12 -125 -53 -141 -89 -6 -13 -11 -44
-11 -71 0 -40 -5 -52 -33 -80 -30 -28 -37 -31 -59 -21 -21 10 -32 8 -69 -10
-24 -13 -61 -37 -82 -55 -21 -18 -59 -38 -85 -45 -26 -6 -61 -22 -79 -36 -17
-13 -36 -24 -42 -24 -18 0 -79 -60 -85 -84 -3 -13 -22 -36 -41 -51 l-36 -27
-20 26 c-32 41 -75 59 -123 52 -50 -9 -122 -54 -159 -101 -26 -33 -31 -35 -88
-35 -69 0 -82 8 -218 133 -80 74 -103 87 -157 87 l-34 0 6 94 c8 115 3 136
-45 189 -20 23 -54 64 -74 91 -50 66 -93 97 -126 90 -52 -12 -116 -66 -161
-135 -25 -38 -48 -69 -51 -69 -4 0 -19 16 -34 36 -15 20 -47 45 -71 55 -39 18
-46 18 -79 5 -36 -15 -55 -47 -55 -91 0 -22 -4 -23 -82 -29 -163 -11 -342 -18
-457 -18 -93 1 -127 -3 -171 -19 -92 -34 -90 -28 -90 -219 0 -149 2 -169 18
-183 16 -14 43 -17 165 -17 l147 0 6 -27 c3 -16 10 -41 15 -57 5 -16 7 -31 5
-33 -2 -3 -26 5 -51 16 -56 25 -95 27 -134 6 -16 -8 -71 -28 -122 -45 -52 -16
-99 -33 -105 -37 -29 -20 -34 -57 -34 -238 0 -217 -10 -196 132 -285 90 -56
98 -68 98 -140 0 -38 33 -113 76 -172 43 -58 53 -112 30 -159 -9 -18 -28 -103
-42 -188 -13 -86 -34 -212 -45 -281 -11 -69 -40 -246 -64 -395 -75 -460 -95
-584 -95 -589 0 -3 -12 -6 -26 -6 -17 0 -43 15 -71 41 l-45 41 -106 -7 c-120
-8 -138 -16 -179 -81 l-28 -44 -63 0 c-50 0 -75 -6 -124 -31 -38 -19 -89 -35
-132 -41 -39 -5 -100 -22 -136 -37 -81 -35 -222 -129 -275 -184 -22 -23 -80
-66 -127 -96 -48 -30 -89 -59 -92 -66 -2 -7 -8 -34 -12 -61 -4 -27 -13 -63
-20 -81 -8 -18 -14 -51 -14 -73 0 -30 -14 -70 -50 -142 -57 -114 -62 -161 -31
-258 24 -72 16 -102 -31 -113 -23 -5 -73 -40 -137 -93 -114 -96 -116 -100
-109 -239 4 -74 2 -85 -13 -90 -10 -3 -32 -22 -49 -42 -29 -33 -31 -40 -25
-82 9 -62 29 -96 70 -124 19 -13 32 -27 29 -30 -4 -3 -3 -22 0 -42 5 -27 19
-44 61 -75 30 -22 55 -48 55 -58 0 -34 48 -117 78 -137 17 -11 34 -31 37 -45
4 -14 37 -54 75 -90 75 -72 120 -133 120 -163 0 -11 -16 -37 -35 -58 -54 -60
-59 -110 -13 -128 13 -5 68 -12 123 -15 55 -4 135 -9 178 -12 l78 -6 24 -49
c14 -26 25 -54 25 -61 0 -7 17 -38 38 -68 l39 -55 154 3 c85 2 193 7 241 11
l86 8 128 112 c121 106 158 126 118 66 -16 -25 -16 -46 -4 -321 8 -167 18
-304 24 -317 9 -16 23 -23 57 -27 25 -3 58 -16 73 -28 16 -12 36 -22 44 -22 8
0 65 23 126 51 l111 51 110 -6 c308 -17 410 -29 431 -47 11 -11 27 -19 36 -19
20 0 209 79 225 94 16 15 83 126 83 137 0 5 36 9 79 9 44 0 87 3 95 6 9 4 32
30 51 59 43 64 140 135 185 135 26 0 47 16 131 99 89 88 106 101 172 125 109
40 248 67 363 70 78 3 109 8 142 25 50 25 47 29 61 -88 9 -80 8 -89 -16 -149
-21 -53 -25 -73 -20 -122 4 -32 14 -75 24 -95 17 -35 17 -38 -1 -83 -35 -88
-32 -117 19 -217 115 -228 159 -290 233 -337 29 -18 72 -48 95 -67 23 -19 56
-40 73 -47 20 -8 36 -25 42 -43 28 -79 202 -129 334 -97 74 19 142 10 168 -21
55 -66 109 -86 165 -61 23 10 29 7 87 -49 35 -33 74 -67 88 -76 40 -25 179
-68 243 -74 48 -5 60 -10 67 -27 4 -12 27 -39 51 -59 24 -21 59 -51 78 -67 21
-18 50 -32 78 -36 60 -9 191 -9 274 1 l67 7 108 -55 c60 -31 126 -63 148 -71
38 -16 38 -16 32 -58 -21 -133 -20 -137 29 -238 42 -84 47 -104 52 -182 l6
-88 -50 0 c-52 0 -83 -20 -83 -53 0 -9 34 -55 76 -102 l75 -85 25 -197 c18
-138 30 -203 41 -215 15 -17 49 -18 441 -18 l424 0 -6 -27 c-4 -14 -18 -34
-31 -45 -13 -10 -26 -26 -29 -36 -7 -20 28 -334 38 -351 9 -14 225 -123 277
-140 34 -11 37 -16 58 -89 12 -42 38 -111 58 -152 l35 -75 -42 -120 c-24 -66
-49 -156 -57 -200 -8 -44 -32 -123 -54 -175 -47 -112 -99 -264 -99 -290 0 -9
20 -36 45 -59 l46 -42 -51 -55 c-27 -31 -50 -63 -50 -72 0 -28 26 -103 64
-186 20 -43 36 -92 36 -108 0 -17 7 -57 15 -89 13 -50 14 -83 4 -221 -24 -361
-24 -344 2 -361 13 -9 56 -21 94 -27 39 -6 92 -17 119 -25 27 -8 79 -15 115
-15 36 0 104 -9 150 -20 84 -18 85 -18 127 1 24 10 46 19 50 19 4 0 22 11 40
25 40 30 46 31 70 4 44 -49 77 -64 154 -69 67 -5 76 -7 87 -30 25 -53 45 -128
54 -209 5 -46 19 -118 31 -160 12 -44 22 -109 23 -156 1 -69 5 -89 34 -145 18
-36 36 -72 40 -80 4 -8 29 -26 57 -39 77 -37 140 -33 244 16 93 45 86 45 153
-14 l36 -31 -10 -133 c-8 -99 -16 -146 -33 -188 -13 -31 -29 -81 -35 -111 -7
-30 -24 -101 -38 -158 -32 -131 -29 -146 45 -179 49 -22 70 -26 143 -24 60 1
89 -2 96 -11 6 -7 34 -70 62 -140 56 -140 62 -183 35 -261 -15 -46 -15 -97 1
-174 5 -24 2 -39 -14 -61 -24 -35 -103 -87 -146 -98 -16 -4 -48 -21 -70 -39
-38 -30 -174 -95 -199 -95 -26 0 -85 -52 -104 -92 -17 -37 -28 -46 -79 -65
-44 -17 -78 -42 -143 -104 -47 -45 -92 -96 -100 -112 -9 -18 -35 -41 -63 -56
-27 -15 -66 -49 -91 -81 -24 -31 -71 -83 -105 -115 -34 -33 -71 -77 -82 -98
-11 -21 -29 -47 -39 -57 -11 -11 -29 -39 -40 -62 -36 -77 -153 -220 -214 -263
-32 -22 -67 -56 -79 -76 -12 -20 -39 -59 -59 -85 -20 -27 -49 -71 -63 -97 -25
-45 -26 -49 -11 -72 16 -24 21 -25 117 -25 101 0 101 0 142 35 52 45 99 47
143 7 16 -15 72 -65 124 -112 188 -168 170 -143 170 -225 0 -42 5 -76 12 -83
7 -7 40 -12 78 -12 75 0 88 8 115 73 8 20 19 37 24 37 5 0 32 -40 60 -88 28
-49 59 -96 69 -105 10 -9 42 -21 72 -27 29 -6 59 -15 67 -22 8 -6 42 -21 76
-32 61 -21 62 -23 105 -100 39 -69 50 -81 91 -98 201 -85 234 -117 265 -259 6
-29 110 -115 151 -125 24 -6 25 -8 10 -24 -9 -10 -20 -34 -26 -54 -7 -26 -21
-44 -49 -61 -22 -14 -44 -33 -50 -44 -5 -11 -10 -85 -10 -171 l0 -152 42 -39
c24 -22 52 -39 64 -39 35 0 141 60 181 103 21 22 50 51 64 66 66 68 139 183
139 223 1 36 111 270 152 324 87 111 118 137 333 266 82 50 270 234 330 323
22 33 63 92 90 130 74 101 119 188 166 315 42 115 61 151 141 275 25 39 57 91
71 116 67 119 192 245 322 326 99 61 102 64 137 135 20 40 47 111 62 157 14
46 37 101 52 122 32 47 43 94 44 186 0 62 -3 75 -24 98 -20 21 -26 42 -32 113
-18 196 -2 539 28 596 5 10 25 31 43 48 45 39 52 77 25 132 -14 30 -19 53 -14
71 6 24 10 26 38 20 106 -23 144 -15 176 37 11 18 23 51 26 73 9 56 82 126
180 170 80 37 254 143 254 155 0 4 19 26 43 49 49 49 136 98 302 171 130 58
177 64 312 46 71 -10 93 0 93 43 0 38 9 47 86 88 38 20 85 44 104 54 25 14 55
19 111 19 60 0 79 4 91 18 25 28 29 56 14 100 l-15 42 27 6 c15 3 35 8 44 10
9 3 31 -2 47 -10 41 -22 79 -20 135 5 l48 21 53 -27 c47 -24 61 -27 117 -21
82 8 399 8 555 0 67 -4 132 -4 146 0 34 8 77 106 77 174 0 48 2 51 56 96 56
46 130 76 185 76 15 0 69 21 119 47 118 60 125 72 116 205 -7 110 1 138 83
286 22 40 45 88 52 106 8 22 25 40 56 56 49 26 56 36 93 135 24 65 29 71 65
83 56 18 76 44 119 147 51 122 59 132 119 159 43 19 58 33 90 83 l37 61 0 145
c0 205 28 344 95 477 24 48 55 82 140 155 26 21 52 51 59 65 8 14 16 84 20
164 9 181 54 369 143 601 63 165 65 171 53 215 -13 52 -34 530 -24 575 3 17
19 85 35 153 29 121 30 125 16 210 -8 48 -13 121 -12 164 2 74 4 79 57 165 81
128 90 148 83 187 -4 19 -3 36 2 39 5 3 44 -21 85 -54 47 -36 86 -59 102 -59
52 0 324 335 426 525 24 44 61 112 83 150 22 39 57 99 77 135 91 161 92 162
203 241 82 59 122 81 173 95 62 16 69 22 113 78 25 34 97 112 159 174 61 62
112 121 112 130 0 10 12 25 28 35 37 22 166 148 230 223 80 94 158 269 230
519 81 284 96 378 82 520 -6 61 -31 193 -55 295 -24 102 -62 275 -84 385 -28
143 -49 218 -70 263 -17 34 -31 66 -31 70 0 13 -52 58 -85 75 -16 8 -68 27
-115 42 -74 23 -96 26 -170 21 -47 -3 -133 0 -192 7 l-107 13 -50 47 c-47 44
-53 47 -105 47 l-55 0 -28 52 c-26 49 -33 54 -112 88 -73 31 -88 41 -110 78
-15 23 -58 69 -98 102 -40 33 -90 85 -111 115 -22 30 -65 76 -97 102 -32 27
-90 75 -129 108 -98 84 -236 186 -396 292 -268 177 -277 182 -397 204 l-108
20 -247 -22 -248 -21 -131 53 c-129 51 -133 52 -161 36 -27 -15 -35 -15 -137
8 -87 20 -148 43 -309 120 -189 89 -205 95 -265 95 -66 0 -82 -8 -89 -45 -3
-16 -16 -22 -83 -31 -104 -15 -149 -34 -177 -78 -17 -26 -52 -51 -136 -96 -62
-33 -115 -60 -117 -60 -25 0 67 204 113 252 42 45 46 81 12 128 -13 18 -29 57
-36 86 -12 52 -33 83 -138 201 -22 25 -54 52 -70 60 -17 9 -44 26 -59 39 -35
29 -83 31 -147 5 l-44 -18 -54 51 c-34 33 -72 57 -105 69 -28 9 -60 26 -71 36
-12 10 -46 26 -76 34 -30 9 -77 30 -105 48 -27 17 -68 34 -90 36 -56 6 -95 22
-131 53 -16 14 -66 38 -110 53 -43 15 -101 37 -129 48 -27 12 -66 23 -85 26
-19 2 -74 11 -122 20 -81 14 -93 14 -152 -1 -36 -9 -77 -16 -91 -16 -34 0 -97
-33 -145 -76 -43 -39 -67 -110 -56 -168 9 -48 -22 -82 -119 -127 -66 -31 -94
-52 -147 -109 -58 -62 -69 -70 -102 -70 -20 0 -36 4 -36 8 0 15 44 49 97 76
60 30 133 114 133 153 0 16 15 39 41 64 37 36 48 58 100 210 65 189 71 231 37
253 -13 7 -113 31 -223 51 -110 20 -203 39 -207 42 -5 2 -34 -8 -66 -22 l-59
-26 -134 25 c-74 14 -156 28 -182 32 -33 4 -51 13 -58 27 -6 11 -13 74 -16
141 l-5 121 42 55 c23 30 51 73 62 95 11 22 36 59 54 82 26 31 34 51 34 81 0
22 6 45 14 52 31 25 38 75 22 140 -29 111 -71 145 -217 171 -55 10 -105 21
-110 25 -25 15 -159 335 -208 494 -23 78 -48 226 -56 335 -8 107 -24 182 -45
225 -29 57 -119 135 -179 155 -71 23 -97 12 -113 -50 -10 -37 -23 -54 -60 -83
-53 -40 -84 -76 -143 -167 -47 -72 -87 -125 -137 -182 -21 -24 -38 -49 -38
-56 0 -8 -15 -43 -34 -78 -18 -35 -57 -121 -86 -191 -50 -123 -53 -127 -92
-143 -23 -9 -52 -25 -66 -36 -35 -27 -84 -24 -122 7 -30 26 -35 26 -111 20
-50 -4 -102 -2 -138 5 -71 15 -91 10 -171 -42 -57 -36 -68 -40 -104 -34 -25 3
-73 27 -121 59 -44 29 -120 72 -170 96 -82 40 -97 44 -165 44 -50 0 -85 -5
-106 -17 -48 -25 -177 -38 -250 -25 -81 14 -106 7 -139 -43 -44 -67 -44 -106
-1 -185 20 -36 35 -69 32 -72 -3 -2 -18 0 -33 7 -91 37 -243 50 -344 29 -51
-10 -65 -9 -132 10 -41 12 -89 22 -107 22 -49 0 -103 -34 -148 -93 -38 -51
-45 -55 -94 -62 -29 -4 -86 -20 -126 -36 -41 -16 -92 -29 -115 -29 -82 0 -118
-12 -158 -50 -29 -27 -39 -45 -39 -67 0 -30 -2 -31 -57 -37 -95 -12 -105 -10
-173 22 -88 41 -194 124 -251 197 l-48 60 0 81 -1 82 -45 38 c-44 37 -46 42
-60 123 -8 48 -12 109 -9 140 7 67 60 236 85 272 10 14 25 45 35 70 9 24 22
51 29 59 21 26 45 99 45 135 0 36 -27 98 -67 152 -12 17 -23 41 -23 52 0 47
-18 69 -75 90 -31 12 -65 21 -75 21 -26 0 -25 11 5 70 47 92 25 191 -55 249
-38 27 -46 29 -139 29 -54 0 -121 3 -148 7 -42 5 -51 3 -68 -15z m311 -109
c39 -34 41 -66 6 -136 -64 -130 -52 -169 58 -186 65 -10 90 -26 90 -60 0 -9 9
-28 20 -42 11 -14 27 -41 35 -59 9 -18 21 -41 27 -50 10 -14 1 -40 -54 -150
-127 -257 -158 -398 -123 -568 18 -90 51 -154 85 -165 18 -6 20 -15 20 -85 0
-67 3 -82 23 -107 13 -15 35 -45 49 -66 35 -53 190 -174 263 -207 l61 -27 18
-199 c9 -110 19 -209 22 -221 l4 -23 -259 0 c-170 0 -268 -4 -283 -11 -47 -23
-117 -126 -168 -246 -54 -127 -58 -149 -35 -179 8 -10 14 -26 15 -34 0 -19
-57 -58 -97 -66 -28 -5 -34 -2 -67 42 -42 55 -84 86 -156 114 -61 24 -73 21
-148 -31 -30 -21 -60 -39 -67 -39 -21 0 -66 -57 -80 -102 -7 -25 -16 -99 -20
-166 -4 -67 -11 -122 -15 -122 -15 0 -85 53 -126 96 -24 24 -56 52 -72 61 -15
10 -47 34 -70 54 -34 29 -42 42 -42 70 0 19 7 43 15 53 8 11 15 30 15 43 0 35
-41 156 -61 178 -9 11 -26 38 -37 60 -19 37 -20 48 -11 135 20 178 21 208 10
229 -9 16 -8 26 5 46 11 16 14 36 11 57 -14 78 -20 104 -27 113 -15 18 -50
134 -50 163 0 18 -10 38 -30 57 -34 33 -37 57 -15 129 8 27 15 55 15 63 0 30
-50 62 -136 89 -49 15 -98 35 -110 46 -12 10 -38 23 -58 29 -34 9 -36 12 -36
50 0 29 -7 47 -25 64 -23 24 -29 25 -153 25 l-128 0 4 33 c2 23 -4 43 -24 72
-15 22 -42 73 -60 114 -32 68 -34 81 -34 178 0 76 -4 114 -16 139 -18 37 -91
107 -139 132 -42 21 -95 65 -95 78 0 8 25 7 84 -2 111 -16 116 -18 151 -67 42
-57 73 -71 131 -59 31 7 67 6 110 -1 61 -10 68 -10 108 12 l43 22 84 -81 c98
-95 131 -113 181 -100 67 19 103 88 92 179 l-6 58 47 12 c26 6 59 21 74 32
l27 20 66 -22 66 -21 61 21 c34 12 66 21 73 21 29 0 147 66 188 104 30 29 61
48 93 56 26 7 50 16 53 21 2 5 16 4 30 -1 36 -14 90 11 145 68 25 26 65 62 87
80 58 46 75 83 70 151 l-4 57 89 -2 c74 -2 93 -6 113 -23z m4482 -506 c35 -39
41 -54 51 -120 6 -42 11 -91 11 -109 0 -66 39 -283 65 -366 33 -103 113 -304
167 -420 53 -113 72 -127 200 -147 122 -18 153 -39 163 -108 6 -35 2 -48 -20
-80 -15 -23 -25 -50 -23 -65 1 -16 -10 -42 -31 -70 -18 -25 -39 -59 -47 -76
-19 -44 -63 -94 -82 -94 -25 0 -115 -44 -132 -65 -8 -9 -26 -51 -40 -93 l-25
-76 -91 -28 c-90 -27 -92 -29 -146 -95 -29 -38 -68 -98 -85 -134 -21 -45 -53
-89 -102 -138 l-71 -73 0 -63 c0 -102 -8 -111 -99 -119 -69 -6 -82 -5 -119 16
-28 14 -44 31 -48 48 -10 46 -14 52 -43 63 -25 9 -30 18 -36 56 -4 25 -16 55
-26 67 -11 12 -22 39 -26 60 -7 46 -35 88 -114 167 -46 47 -62 72 -80 125 -12
37 -29 78 -38 91 -11 17 -17 56 -19 128 -4 96 -6 105 -29 123 -14 11 -31 20
-37 20 -14 0 -57 38 -79 70 -11 15 -17 44 -17 76 0 42 -5 58 -31 90 -36 47
-109 84 -164 84 -60 0 -89 20 -187 133 -36 40 -70 51 -210 63 l-68 6 0 81 c0
105 6 115 51 83 71 -52 111 -68 183 -73 71 -5 71 -5 140 41 38 26 76 44 85 42
77 -23 113 -27 157 -18 42 9 51 8 75 -11 22 -16 48 -22 112 -25 77 -4 85 -2
112 20 17 14 51 34 77 46 56 25 64 35 126 187 27 67 66 152 86 189 20 38 36
73 36 78 0 6 18 30 40 55 22 25 71 92 109 148 66 96 118 153 175 190 14 10 31
34 37 56 12 38 12 38 39 24 15 -8 46 -35 68 -60z m-1847 -785 c80 -36 82 -40
68 -107 -15 -72 -4 -206 17 -224 9 -7 65 -16 132 -20 116 -8 117 -8 145 -41
96 -113 143 -143 238 -154 51 -6 67 -12 95 -41 30 -30 34 -40 34 -87 0 -69 45
-139 111 -172 37 -19 43 -27 41 -48 -5 -39 17 -174 32 -199 7 -12 24 -53 36
-91 19 -57 35 -82 92 -144 83 -90 94 -106 103 -156 4 -22 15 -51 25 -64 11
-13 22 -44 26 -69 5 -35 13 -49 34 -61 15 -8 35 -34 46 -56 14 -30 34 -49 69
-68 45 -25 60 -27 145 -27 52 1 106 4 119 8 43 12 62 51 70 139 l7 81 61 61
c43 42 75 86 103 143 23 45 61 103 84 130 37 41 52 50 125 71 96 28 117 44
132 100 20 77 33 106 55 121 21 13 22 12 28 -36 4 -27 5 -53 2 -57 -9 -15 25
-226 40 -243 9 -10 58 -24 137 -38 67 -13 167 -31 222 -41 l100 -18 54 24 54
24 171 -32 c94 -17 175 -35 180 -39 4 -4 -13 -69 -39 -146 -43 -128 -50 -142
-96 -185 -39 -38 -49 -54 -49 -81 0 -40 -39 -86 -101 -117 -73 -38 -101 -61
-119 -104 -32 -75 -33 -94 -6 -121 23 -23 33 -25 115 -25 l90 0 68 75 c58 65
82 82 161 121 124 60 152 96 152 199 0 69 2 74 35 108 24 24 47 38 73 42 20 3
64 11 98 18 49 11 71 11 120 1 32 -7 79 -13 104 -13 26 -1 50 -5 56 -11 5 -5
57 -26 114 -46 58 -20 116 -46 130 -59 38 -35 87 -56 151 -65 32 -5 70 -18 86
-30 29 -21 29 -22 22 -85 -5 -35 -17 -84 -29 -109 -22 -50 -25 -93 -9 -130 19
-41 2 -90 -52 -155 -41 -50 -51 -69 -56 -112 -5 -46 -12 -57 -60 -103 -50 -49
-53 -55 -53 -102 0 -78 -27 -137 -108 -232 -88 -103 -99 -126 -107 -213 -6
-65 -7 -66 -51 -94 -56 -36 -94 -79 -94 -109 0 -24 -30 -66 -101 -143 -34 -37
-45 -43 -67 -39 -35 7 -40 5 -251 -164 -100 -80 -203 -157 -229 -171 -40 -23
-47 -32 -50 -61 -4 -45 22 -68 90 -77 57 -8 153 -54 163 -79 3 -8 -3 -25 -14
-36 -15 -16 -20 -34 -19 -66 1 -63 -11 -100 -43 -138 -16 -18 -29 -43 -29 -56
0 -16 -15 -35 -51 -62 -29 -21 -61 -57 -73 -79 -26 -49 -24 -47 -121 -86 -128
-50 -158 -88 -170 -211 -5 -62 -13 -86 -36 -120 -49 -73 -36 -167 30 -218 17
-13 19 -23 14 -70 -4 -44 -26 -96 -102 -245 -89 -175 -99 -191 -129 -199 -24
-7 -55 -37 -122 -117 -78 -93 -92 -115 -100 -161 -6 -29 -25 -82 -42 -118
l-32 -65 -86 7 c-47 5 -294 22 -550 38 -2319 150 -2420 158 -2495 187 -38 15
-88 43 -110 63 -66 58 -158 127 -182 134 -13 4 -57 40 -98 80 -82 78 -91 98
-110 245 -7 53 -17 80 -55 151 -11 19 -19 42 -20 50 -1 39 -61 171 -103 228
-45 62 -49 70 -61 125 -4 18 -23 38 -60 63 -89 59 -102 134 -36 209 10 11 38
65 63 120 25 55 95 210 157 345 62 135 143 313 180 395 128 283 411 906 464
1020 117 252 139 308 129 324 -17 28 -66 46 -120 45 -38 -1 -53 2 -53 12 0 13
-93 78 -134 94 -12 4 -41 31 -65 58 -37 45 -50 52 -99 63 -57 12 -229 95 -267
129 -11 9 -51 38 -90 63 -38 25 -81 56 -94 69 -14 13 -43 32 -65 43 -33 16
-42 27 -49 57 -7 30 -22 48 -75 90 -87 67 -92 74 -92 123 0 33 -6 47 -30 70
-27 26 -30 35 -30 94 0 36 -9 158 -20 271 -11 113 -22 237 -25 275 -3 39 -8
79 -10 91 -4 17 3 22 53 32 32 7 71 12 86 12 34 0 82 24 90 45 3 9 6 27 6 39
0 37 34 59 88 59 56 -1 110 11 171 39 24 11 73 24 109 29 35 5 70 13 77 17 7
4 36 35 65 70 46 55 56 62 88 62 21 0 53 -5 72 -10 81 -24 120 -27 177 -14 70
17 170 10 264 -17 90 -26 141 -25 173 4 42 38 40 57 -9 151 -40 75 -45 90 -33
104 22 28 27 29 73 19 56 -13 218 3 260 25 44 23 134 22 186 -2z m-4168 -224
c18 -13 59 -31 92 -40 104 -29 117 -36 110 -60 -4 -12 -9 -53 -12 -92 -5 -64
-3 -73 20 -100 13 -16 34 -60 45 -99 11 -38 31 -103 43 -143 18 -59 20 -78 11
-93 -15 -24 -15 -92 0 -107 9 -9 8 -32 -5 -99 -25 -134 -28 -205 -11 -227 8
-11 14 -26 14 -34 0 -8 13 -31 29 -51 16 -20 38 -62 48 -93 18 -54 18 -57 1
-89 -42 -79 -17 -146 83 -219 41 -30 97 -76 124 -101 28 -26 61 -56 75 -67 50
-38 137 -55 158 -29 5 6 13 66 17 132 8 146 21 222 43 242 10 8 48 33 85 54
l68 40 46 -22 c43 -21 70 -45 126 -113 53 -65 216 -30 262 56 19 36 19 39 2
87 l-17 50 39 94 c21 52 58 119 82 150 l44 57 261 0 261 0 7 -92 c3 -50 6
-110 6 -133 0 -33 6 -47 30 -70 24 -23 30 -37 30 -70 0 -44 26 -75 113 -140
25 -19 47 -48 62 -82 16 -36 33 -57 52 -65 15 -7 66 -41 112 -75 46 -35 87
-63 91 -63 5 0 26 -15 49 -32 48 -39 109 -78 121 -78 5 0 31 -13 58 -29 26
-15 70 -31 98 -36 43 -6 55 -14 103 -66 30 -32 62 -59 71 -59 10 0 29 -9 43
-20 14 -11 30 -20 36 -20 6 0 19 -15 28 -34 19 -40 42 -48 107 -40 30 4 46 3
46 -4 0 -6 -20 -52 -44 -104 -24 -51 -64 -138 -89 -193 -46 -102 -240 -529
-282 -620 -13 -27 -91 -198 -173 -380 -82 -181 -164 -361 -182 -400 -18 -38
-65 -143 -106 -233 -40 -89 -86 -178 -102 -197 -39 -44 -58 -126 -42 -184 13
-48 50 -94 100 -126 41 -26 55 -63 34 -93 -7 -10 -19 -43 -27 -74 -8 -31 -24
-67 -36 -79 -28 -30 -35 -59 -27 -111 4 -24 10 -71 12 -106 5 -56 3 -68 -20
-102 -21 -31 -26 -52 -26 -98 0 -32 -6 -65 -12 -74 -11 -14 -105 -18 -769 -33
-565 -13 -761 -15 -777 -6 -36 19 -58 12 -100 -31 -40 -40 -41 -41 -65 -25
-14 9 -38 34 -54 56 -15 23 -36 43 -46 47 -10 3 -27 26 -37 50 -19 43 -29 51
-94 70 -18 5 -42 27 -61 54 -17 25 -53 59 -80 75 -48 30 -49 30 -222 33 -146
3 -178 1 -199 -13 -13 -8 -24 -24 -24 -36 0 -11 -8 -23 -17 -26 -23 -9 -74
-46 -145 -107 -65 -55 -73 -86 -39 -142 l19 -32 -47 -58 c-44 -56 -49 -58 -87
-56 -24 2 -59 -5 -88 -18 -39 -16 -60 -19 -111 -14 -55 6 -65 4 -84 -15 -14
-14 -21 -34 -21 -61 0 -32 -8 -49 -37 -82 -21 -24 -38 -45 -40 -47 -1 -2 -15
6 -31 18 -42 30 -73 26 -123 -14 -24 -19 -48 -35 -54 -35 -5 0 -32 -11 -59
-25 -50 -25 -50 -25 -100 -7 -42 14 -73 16 -176 12 l-125 -5 -27 -56 c-19 -40
-41 -67 -79 -95 -29 -21 -60 -45 -70 -53 -17 -12 -72 8 -481 169 -398 157
-517 209 -847 371 l-384 189 -391 76 c-215 41 -485 93 -601 116 -177 34 -249
54 -455 125 -135 47 -253 87 -262 90 -18 5 -21 26 -9 74 8 36 141 145 191 159
97 26 121 95 79 227 -23 74 -23 75 -5 125 10 28 31 72 47 99 18 29 34 73 40
111 6 35 17 85 25 112 8 26 14 58 14 70 0 16 22 35 86 76 47 30 99 70 115 88
36 41 176 137 245 167 29 13 82 26 118 30 39 4 91 19 127 36 46 22 75 29 120
29 76 0 109 17 148 78 l31 49 78 6 77 5 38 -36 c35 -34 42 -37 111 -40 90 -5
110 9 120 84 7 46 33 211 91 569 13 83 34 209 45 280 68 428 92 557 111 600
33 75 23 114 -74 268 -19 31 -30 66 -37 122 -6 47 -17 86 -27 97 -9 10 -56 43
-105 74 l-88 56 0 157 c0 182 -15 159 134 206 88 28 90 28 137 12 60 -22 132
-22 153 -1 22 22 20 92 -4 175 -30 100 -45 108 -206 111 l-129 3 -3 112 -3
111 37 12 c20 7 73 12 118 11 45 0 202 5 349 13 298 15 295 14 304 85 3 22 9
41 13 41 4 0 20 -18 36 -41 30 -43 57 -59 104 -59 33 0 52 19 118 114 77 113
76 113 167 4 l77 -93 -6 -65 c-4 -36 -9 -90 -12 -121 -9 -79 12 -99 97 -99
l61 0 100 -87 c140 -124 138 -123 241 -123 49 0 98 5 110 12 12 6 45 35 72 65
36 37 58 53 77 53 37 0 50 -20 38 -60 -11 -39 5 -74 39 -85 34 -11 112 42 126
85 3 11 20 27 36 36 18 9 38 32 48 55 13 28 36 52 77 79 33 22 66 40 75 40 30
0 85 28 128 64 48 41 54 42 71 21 25 -30 57 -17 125 50 73 73 85 96 85 159 0
52 10 61 75 76 52 12 195 76 230 104 29 22 61 20 98 -8z m8728 -1732 c20 -14
54 -30 75 -35 23 -7 61 -33 98 -68 34 -32 69 -61 78 -64 10 -3 48 5 84 19 l67
25 27 -26 c14 -14 30 -25 36 -25 14 -1 66 -51 100 -96 16 -21 37 -45 46 -52
10 -7 22 -32 28 -55 6 -23 20 -61 32 -83 l21 -41 -30 -39 c-16 -22 -49 -82
-72 -134 -37 -84 -41 -103 -41 -171 0 -64 3 -79 20 -94 20 -18 22 -18 83 13
210 107 275 146 313 188 22 24 45 44 50 44 5 0 53 7 107 15 98 14 126 28 127
63 0 23 34 12 229 -81 170 -81 215 -98 334 -125 127 -30 139 -31 167 -17 17 9
31 11 35 5 12 -19 -25 -66 -114 -147 -81 -75 -93 -83 -130 -83 -48 0 -117 -25
-150 -54 -28 -25 -51 -75 -51 -111 0 -17 -16 -43 -45 -74 -25 -26 -45 -52 -45
-57 0 -6 -16 -26 -35 -47 -42 -45 -52 -79 -35 -126 8 -23 12 -74 11 -141 -2
-88 1 -113 18 -150 12 -27 21 -66 21 -99 0 -48 -5 -62 -54 -135 -69 -105 -90
-168 -84 -255 6 -76 20 -108 77 -173 36 -41 41 -52 41 -97 0 -102 -32 -131
-154 -135 -46 -2 -88 -6 -94 -10 -6 -3 -31 7 -55 24 -40 26 -53 30 -116 30
-65 0 -79 -4 -145 -40 -39 -22 -111 -72 -158 -112 -120 -102 -199 -158 -224
-158 -12 0 -32 -8 -45 -18 -25 -19 -71 -33 -174 -53 -128 -24 -172 -75 -199
-227 -13 -78 -52 -163 -189 -412 l-30 -55 10 -128 c9 -107 14 -131 31 -150
l21 -22 -19 -140 c-11 -77 -27 -157 -36 -178 -17 -36 -18 -37 -40 -22 -13 8
-45 20 -72 26 -34 7 -53 17 -60 32 -22 44 -84 152 -94 165 -8 10 -3 21 21 46
48 50 40 71 -46 124 l-73 43 0 55 c0 78 -11 94 -65 94 -25 0 -45 3 -45 6 0 4
18 26 39 49 31 34 42 56 51 103 14 70 33 91 103 117 59 22 69 37 98 143 l22
83 -39 40 c-21 22 -46 44 -54 49 -9 5 -54 0 -110 -12 -52 -11 -101 -21 -109
-21 -8 -1 -52 48 -98 108 -47 61 -89 112 -94 113 -5 2 -9 24 -9 48 0 60 -13
82 -55 90 -43 8 -44 19 -5 39 39 20 45 35 59 131 7 45 22 108 33 140 20 54 22
75 20 257 -2 179 -4 201 -23 235 -30 54 -32 55 -112 102 -42 25 -85 60 -103
84 -30 40 -31 41 -95 42 -65 0 -140 27 -123 44 5 5 63 52 129 104 111 89 123
96 155 91 32 -5 39 -1 86 47 99 103 131 147 138 185 5 31 14 43 51 66 75 48
95 79 95 150 0 71 2 75 106 201 74 91 114 177 114 247 0 30 8 43 49 81 43 40
50 51 56 99 5 42 16 66 51 112 25 32 49 70 54 83 13 33 13 137 0 150 -6 6 -1
30 15 69 13 33 25 74 25 90 0 17 3 40 6 53 8 27 29 23 85 -14z m2182 -898 l78
-29 -29 -31 c-32 -35 -52 -77 -52 -108 0 -30 69 -278 86 -308 24 -44 74 -160
74 -173 0 -6 -14 -39 -32 -73 l-32 -61 13 -89 c6 -49 18 -109 26 -134 8 -25
18 -70 24 -100 5 -30 21 -81 35 -112 21 -46 27 -80 32 -170 3 -62 16 -158 29
-213 13 -55 27 -125 31 -155 9 -79 44 -142 91 -165 76 -39 76 -41 37 -97 -18
-28 -34 -56 -34 -62 0 -7 -16 -43 -35 -82 -40 -79 -42 -96 -16 -154 17 -38 17
-44 3 -73 -14 -28 -14 -33 6 -71 12 -23 22 -54 22 -70 0 -46 -68 -102 -253
-209 -18 -11 -42 -28 -53 -39 -12 -11 -37 -27 -55 -36 -22 -11 -42 -34 -59
-67 -29 -57 -79 -95 -124 -95 -37 0 -56 -15 -56 -46 0 -28 -16 -40 -65 -48
-97 -17 -221 -59 -280 -96 -54 -35 -70 -40 -121 -40 -54 0 -61 3 -97 38 l-38
37 -112 7 c-62 4 -128 10 -148 14 -24 4 -49 1 -70 -9 -19 -9 -43 -17 -54 -19
-43 -7 -48 -83 -14 -190 9 -29 9 -47 1 -77 -7 -21 -12 -51 -12 -66 0 -66 -58
-135 -208 -248 -8 -7 -18 -4 -30 7 -40 35 -131 6 -232 -75 -52 -42 -58 -44
-117 -42 -34 1 -75 9 -91 17 -44 23 -89 82 -108 144 -25 79 -55 103 -143 118
-40 7 -74 14 -77 16 -2 2 5 26 15 54 10 27 27 115 37 195 l18 146 -22 35 c-16
26 -25 62 -32 133 l-9 97 46 87 c25 47 70 133 101 190 42 79 58 122 69 184 23
136 49 168 147 181 66 8 155 36 188 58 14 10 36 18 48 18 23 0 171 107 251
182 64 60 189 128 235 128 23 0 55 -11 86 -30 48 -30 52 -30 141 -25 134 9
179 21 215 58 43 45 62 96 62 171 0 61 -2 66 -44 112 -24 27 -53 69 -66 93
-37 74 -18 154 66 270 55 77 67 116 59 187 -3 35 -15 86 -26 115 -16 41 -19
71 -17 153 2 55 -1 112 -5 126 -6 20 0 35 32 80 22 30 56 71 76 91 25 27 38
51 45 88 5 28 14 60 20 70 12 24 90 51 146 51 36 0 48 6 91 48 27 26 74 69
105 95 31 27 64 66 73 88 10 22 21 38 24 37 4 -2 42 -16 84 -32z m669 0 c83
-15 100 -24 363 -200 255 -170 525 -388 591 -479 24 -32 74 -84 111 -114 38
-30 80 -75 94 -99 33 -56 24 -50 114 -89 l78 -33 -39 -11 c-96 -26 -188 -116
-247 -241 -16 -36 -51 -94 -77 -130 -25 -36 -54 -85 -64 -110 -28 -71 -49 -88
-100 -83 -42 5 -43 4 -81 -48 -35 -49 -39 -60 -40 -119 -1 -53 -7 -77 -34
-130 -41 -80 -54 -196 -29 -258 31 -75 40 -115 34 -147 -7 -36 -47 -75 -77
-75 -9 0 -35 -19 -57 -42 l-40 -41 -53 50 c-65 61 -275 202 -303 204 -12 1
-103 1 -203 -1 -181 -2 -183 -2 -183 19 0 31 24 85 58 128 60 76 47 126 -46
180 -62 36 -69 46 -82 123 -6 36 -20 106 -30 155 -11 50 -24 149 -29 220 -8
111 -14 140 -40 196 -16 37 -30 75 -29 85 0 11 -7 46 -17 79 -9 33 -21 87 -26
121 -4 34 -11 68 -14 75 -3 8 9 37 27 64 50 75 41 134 -47 307 -8 16 -28 79
-45 140 -17 62 -33 120 -36 129 -3 12 60 103 112 158 7 7 243 28 329 29 44 1
115 -5 157 -12z m-4082 -1006 c44 -22 73 -30 112 -30 47 0 55 -3 69 -26 9 -14
54 -49 100 -78 53 -32 89 -62 98 -80 8 -17 15 -78 18 -150 7 -170 4 -224 -13
-265 -9 -20 -23 -82 -32 -137 l-17 -101 -45 -35 c-35 -26 -46 -41 -48 -67 -4
-41 10 -58 59 -73 37 -11 39 -13 39 -53 0 -31 6 -47 25 -65 14 -13 67 -79 117
-147 50 -68 98 -123 107 -123 9 0 32 5 51 11 19 6 64 17 100 24 56 11 68 11
88 -1 19 -13 22 -21 16 -47 -18 -87 -27 -101 -73 -117 -25 -8 -61 -31 -81 -50
-30 -28 -39 -47 -49 -97 -10 -50 -20 -71 -56 -111 -33 -37 -45 -58 -45 -82 0
-54 15 -70 65 -70 l45 0 0 -54 c0 -60 15 -79 93 -121 20 -11 37 -22 37 -25 0
-4 -13 -19 -30 -35 -38 -36 -38 -54 1 -91 17 -16 34 -36 38 -44 3 -8 26 -50
50 -93 44 -80 65 -97 119 -97 14 0 43 -12 63 -26 21 -14 54 -32 74 -38 l36
-13 -96 -58 c-111 -67 -139 -96 -159 -166 -9 -28 -26 -64 -40 -80 -14 -16 -39
-57 -56 -92 -35 -71 -33 -111 7 -151 24 -24 105 -56 142 -56 29 0 26 -16 -9
-57 -35 -39 -39 -76 -9 -96 20 -15 20 -15 -8 -37 -44 -34 -52 -58 -53 -156 0
-85 2 -92 26 -115 40 -37 47 -57 34 -89 -11 -26 -16 -28 -97 -35 -86 -7 -87
-7 -138 -56 -51 -48 -53 -49 -117 -49 -57 0 -131 -19 -219 -54 -10 -4 -27 5
-48 25 -26 25 -38 29 -59 24 -34 -8 -42 -21 -42 -67 0 -21 -4 -38 -9 -38 -31
0 -123 54 -152 89 -38 48 -59 51 -107 15 -34 -26 -36 -27 -98 -15 -45 8 -70 8
-83 1 -28 -14 -28 -15 -34 41 -13 106 -104 209 -177 199 -36 -5 -112 -105
-152 -199 -21 -52 -22 -53 -57 -46 -47 9 -274 92 -297 110 -18 13 -18 16 4 89
39 133 25 216 -38 216 -45 0 -93 -49 -131 -135 -22 -50 -35 -71 -41 -63 -5 7
-8 56 -8 108 1 52 -3 113 -9 134 -5 22 -8 104 -6 182 3 115 1 145 -10 151 -14
8 -9 44 28 173 9 30 21 107 27 170 8 86 16 122 30 142 11 15 41 78 66 140 48
117 54 131 124 285 22 51 44 109 47 130 8 52 15 63 95 159 44 53 80 87 97 90
14 4 34 14 45 23 10 9 63 105 118 215 96 192 99 201 105 280 l5 81 -41 40
c-23 21 -41 48 -41 58 0 11 14 44 31 74 25 43 33 71 38 134 6 70 10 83 36 108
17 15 67 43 111 60 82 32 121 63 142 113 6 15 31 41 54 57 66 46 78 59 78 87
0 16 11 36 25 50 14 13 25 34 25 47 0 13 7 38 16 56 9 18 14 44 11 59 -3 17 2
35 14 51 44 55 7 128 -91 179 -36 18 -78 32 -98 32 l-35 0 44 34 c24 19 45 35
47 35 1 1 29 -12 62 -29z m5480 -90 c0 -5 9 -19 20 -30 16 -16 33 -20 82 -20
60 0 64 -2 105 -42 l43 -42 147 -17 c114 -13 158 -15 198 -6 44 9 61 7 125
-12 41 -13 91 -31 111 -42 66 -33 104 -144 170 -499 6 -30 12 -63 15 -72 9
-29 -29 -29 -126 2 -77 24 -113 30 -190 30 -79 0 -109 5 -180 30 -46 17 -92
30 -102 30 -42 0 -87 -102 -97 -220 -5 -65 -9 -75 -25 -75 -13 0 -23 11 -31
34 -18 54 -57 81 -117 81 -29 0 -67 -6 -86 -12 -30 -11 -35 -11 -50 9 -9 12
-34 29 -54 37 l-36 16 19 39 c10 22 19 47 19 56 0 8 18 33 39 54 67 67 79 113
40 152 -18 18 -28 20 -78 15 -81 -9 -152 -27 -181 -44 -38 -24 -80 -64 -80
-78 0 -40 -108 -78 -180 -64 -46 9 -140 47 -140 56 0 3 8 19 17 35 15 25 22
28 48 23 49 -9 106 39 145 123 18 37 50 92 71 121 22 29 49 74 60 100 33 77
97 168 138 195 56 37 141 59 141 37z m-57 -621 c-27 -26 -45 -53 -49 -76 -4
-19 -17 -47 -31 -63 -19 -23 -24 -38 -21 -72 3 -42 4 -43 52 -59 31 -11 60
-29 76 -49 29 -36 46 -37 138 -9 54 17 71 7 93 -51 9 -24 24 -49 34 -57 28
-20 78 -16 116 10 33 22 34 26 39 97 4 58 27 148 45 177 1 2 35 -8 75 -22 57
-19 94 -25 165 -25 71 0 110 -6 176 -27 46 -14 108 -28 137 -31 47 -3 53 -7
58 -30 3 -15 17 -70 29 -122 13 -52 27 -140 30 -195 7 -97 7 -100 -11 -83 -36
32 -75 40 -167 33 -103 -8 -126 -22 -134 -81 -5 -42 -5 -42 -57 -49 -28 -3
-70 -15 -92 -25 -35 -15 -59 -17 -153 -12 -100 4 -115 3 -139 -15 -15 -10 -42
-25 -59 -32 -35 -14 -88 -69 -114 -118 -30 -56 -116 -48 -130 12 -4 17 -10 42
-13 56 -3 14 -15 30 -27 35 l-22 10 20 20 c22 20 72 146 80 201 4 25 -2 40
-27 72 -55 69 -121 78 -191 26 -19 -14 -61 -38 -94 -54 -33 -16 -80 -47 -105
-70 -25 -22 -52 -41 -60 -42 -8 0 -40 -4 -70 -9 -48 -7 -58 -5 -77 12 -18 17
-30 19 -70 13 -45 -6 -50 -4 -62 18 -11 21 -10 30 8 65 25 48 27 96 6 136 -8
15 -15 36 -15 46 0 10 -7 31 -15 46 -22 43 -18 90 14 163 16 36 34 79 40 94 9
22 16 27 29 22 42 -16 129 -35 162 -35 82 0 192 56 204 104 10 40 105 81 196
85 23 1 22 -1 -17 -40z m-10314 -402 c21 -24 81 -165 81 -193 0 -8 16 -46 35
-84 19 -38 35 -79 35 -91 0 -46 33 -185 51 -215 26 -44 153 -159 197 -180 42
-19 81 -49 154 -116 28 -27 55 -48 59 -48 5 0 34 -12 65 -26 96 -44 -124 -26
2474 -194 349 -23 645 -43 657 -46 25 -5 26 3 -23 -109 -8 -16 -27 -64 -44
-105 -17 -41 -39 -84 -49 -95 -21 -23 -38 -105 -45 -215 -3 -41 -14 -102 -24
-135 -10 -33 -24 -89 -31 -124 -10 -53 -10 -66 2 -80 12 -12 15 -49 16 -163 1
-81 6 -160 12 -175 6 -16 7 -58 3 -105 -7 -86 3 -125 44 -170 l24 -27 -21 -29
c-16 -23 -21 -45 -21 -91 0 -56 -4 -67 -55 -150 -53 -84 -56 -94 -66 -183 -7
-67 -17 -103 -33 -128 -31 -49 -35 -60 -46 -158 -6 -48 -21 -123 -34 -166
l-23 -80 -58 -13 c-43 -10 -77 -27 -127 -65 -74 -57 -97 -88 -135 -188 -14
-36 -30 -79 -37 -96 -18 -48 -34 -63 -85 -78 -89 -26 -119 -44 -180 -108 -62
-63 -101 -139 -101 -194 0 -40 -47 -99 -110 -138 -32 -20 -62 -36 -68 -36 -13
0 -30 -29 -79 -135 -32 -68 -45 -114 -56 -190 -14 -98 -14 -102 9 -175 13 -41
24 -79 24 -83 0 -11 -296 -5 -306 6 -10 9 -7 13 69 103 l57 68 0 81 c0 50 -5
86 -12 93 -23 23 -71 14 -108 -21 -152 -138 -169 -150 -206 -144 -20 4 -55 18
-77 33 -55 36 -118 31 -215 -19 -109 -56 -123 -53 -309 66 -125 80 -242 137
-282 137 -17 0 -58 -13 -91 -30 -50 -25 -71 -30 -133 -30 -60 0 -79 -4 -101
-21 -30 -23 -101 -140 -112 -182 -8 -35 -21 -41 -125 -62 -85 -17 -86 -17
-128 4 -25 13 -46 33 -52 49 -34 85 -36 88 -80 101 -50 15 -241 109 -250 122
-3 5 -11 64 -18 130 -12 118 -12 122 9 144 43 46 55 160 20 195 -19 19 -33 20
-439 20 l-419 0 -6 28 c-3 15 -13 88 -21 162 -21 185 -22 188 -72 248 -42 49
-43 52 -20 52 13 0 31 8 40 18 15 16 16 34 8 148 -8 127 -9 131 -56 224 -47
94 -48 95 -35 140 35 121 17 176 -69 207 -28 10 -51 20 -51 24 0 3 32 27 70
53 39 25 70 52 70 60 0 8 9 44 21 81 17 56 31 78 76 124 54 53 97 130 140 246
22 60 19 163 -7 216 -30 61 -64 127 -91 175 l-23 41 39 53 c52 71 54 128 8
215 l-31 60 -84 5 c-67 4 -89 10 -112 28 -28 21 -35 22 -267 22 l-239 0 0 130
c0 106 -3 138 -18 168 -16 33 -18 62 -17 262 1 124 -2 248 -8 276 -8 41 -6 56
7 82 9 17 16 51 16 74 l0 44 724 17 c398 9 730 19 739 22 21 9 45 71 52 140 4
33 16 75 27 92 17 28 19 45 15 120 -3 49 -8 102 -12 119 -6 26 -2 37 24 66 18
21 33 51 37 76 4 23 10 42 14 42 3 0 16 -11 29 -23z m9134 -162 c9 -4 17 -10
17 -14 0 -4 19 -18 43 -31 60 -33 104 -66 169 -127 31 -29 68 -57 83 -63 33
-13 79 6 119 49 39 40 59 39 85 -5 l22 -36 59 6 c53 6 60 5 70 -15 10 -17 18
-20 48 -15 21 3 70 10 110 15 63 7 78 13 110 42 20 19 43 40 51 48 8 7 34 21
57 31 23 10 61 32 85 49 47 35 74 39 101 14 22 -19 23 -39 4 -75 -8 -15 -17
-41 -21 -58 -4 -17 -18 -43 -31 -59 -13 -16 -31 -46 -40 -66 -14 -33 -14 -39
1 -61 9 -15 25 -24 40 -24 21 0 26 -6 31 -41 12 -71 74 -106 167 -94 65 8 77
17 113 84 27 50 65 81 97 81 8 0 22 9 33 21 17 19 25 20 124 14 92 -6 111 -4
150 13 25 11 71 23 102 27 71 8 99 29 107 81 l6 39 76 3 c74 3 76 2 112 -33
34 -33 37 -39 31 -78 -19 -125 -162 -568 -183 -567 -3 1 -44 14 -91 31 -154
56 -148 55 -211 25 -31 -14 -60 -26 -65 -26 -22 0 -105 -48 -123 -72 -11 -14
-43 -40 -71 -58 l-51 -32 -142 9 c-151 10 -174 18 -202 65 -22 38 -111 97
-158 105 -22 3 -42 13 -48 24 -5 10 -27 23 -48 30 -48 14 -70 4 -108 -53 -30
-46 -62 -66 -117 -75 -32 -5 -34 -3 -41 27 -4 20 -18 38 -38 50 -17 11 -35 33
-41 52 -8 25 -17 34 -38 36 -15 2 -35 -1 -44 -6 -17 -10 -99 24 -135 55 -9 7
-39 22 -68 32 -29 10 -66 32 -84 49 -18 17 -45 36 -62 42 -52 20 -139 -6 -173
-52 -7 -10 -32 -28 -55 -39 -23 -12 -66 -48 -95 -80 l-54 -59 -63 0 c-71 0
-81 -7 -91 -67 -13 -85 -71 -150 -121 -137 -19 5 -20 10 -12 31 8 21 4 36 -17
77 -15 28 -35 62 -45 75 -11 13 -19 38 -19 55 -1 55 -49 119 -117 155 -13 6
-23 15 -23 20 0 4 51 40 114 80 62 39 134 91 159 115 39 38 46 51 52 98 7 53
-4 100 -25 113 -8 5 -8 11 1 21 14 17 6 109 -11 129 -9 11 29 13 202 11 117
-2 221 -6 231 -11z m-16553 -108 c144 -50 233 -74 400 -106 118 -23 294 -57
390 -76 96 -19 272 -53 390 -76 l215 -41 365 -180 c201 -99 442 -211 535 -248
94 -37 310 -123 480 -190 171 -68 313 -126 317 -129 4 -3 -27 -41 -68 -84 -55
-57 -84 -80 -105 -82 -42 -6 -177 -102 -218 -156 l-34 -44 -66 3 c-87 5 -113
-7 -139 -60 -40 -86 -75 -121 -140 -146 -51 -20 -68 -22 -94 -13 -35 11 -184
25 -433 41 l-150 9 -108 -49 -107 -50 -41 29 c-22 17 -45 31 -51 33 -7 3 -16
92 -24 251 -11 212 -10 252 2 275 9 17 14 59 14 118 0 92 -8 114 -41 114 -9 0
-74 -51 -144 -112 -70 -62 -146 -129 -168 -147 l-40 -35 -190 -11 -191 -12
-22 26 c-12 14 -25 39 -28 55 -11 52 -74 144 -104 150 -56 12 -179 25 -239 26
-35 0 -63 2 -63 5 0 2 9 22 21 44 36 70 6 145 -106 259 -41 41 -76 85 -79 98
-3 12 -26 39 -51 59 -24 20 -47 46 -51 58 -21 71 -49 118 -84 142 -35 24 -38
30 -33 60 6 35 -4 49 -76 103 -44 33 -41 65 8 93 37 21 61 54 61 84 0 12 10
11 53 -5 28 -11 135 -48 237 -83z m5057 -78 c28 -13 59 -41 83 -74 36 -48 67
-69 114 -77 12 -2 24 -17 31 -37 6 -19 25 -44 41 -55 16 -12 33 -28 38 -36 17
-28 88 -91 114 -101 35 -13 87 6 113 42 22 32 28 31 83 -15 l29 -24 -23 -40
c-17 -30 -21 -48 -16 -74 4 -18 9 -152 12 -298 5 -236 7 -269 25 -303 16 -32
19 -59 19 -175 0 -94 4 -142 12 -150 9 -9 80 -12 257 -12 l244 0 33 -25 c28
-21 43 -25 103 -25 l71 0 20 -40 c26 -51 26 -92 -1 -116 -57 -52 -63 -116 -18
-200 68 -126 86 -171 93 -227 6 -52 3 -66 -22 -120 -16 -34 -39 -83 -50 -109
-12 -27 -28 -48 -35 -48 -13 0 -44 -36 -81 -95 -10 -16 -28 -60 -40 -97 -20
-65 -23 -68 -96 -117 l-74 -49 -68 34 c-60 30 -76 34 -148 34 -45 0 -89 -4
-98 -9 -10 -5 -53 -5 -104 0 -80 8 -91 12 -142 50 -36 27 -62 56 -76 85 -24
52 -48 64 -128 64 -32 0 -83 9 -115 20 -31 11 -63 20 -70 20 -8 0 -51 36 -95
80 -98 97 -121 108 -171 82 l-36 -19 -46 43 c-57 52 -109 68 -193 59 -34 -4
-97 -7 -142 -8 -96 -2 -127 11 -154 64 -14 26 -33 43 -67 59 -26 12 -61 34
-78 50 -16 15 -48 37 -70 48 -42 21 -135 121 -135 144 0 8 -14 36 -32 64 -17
27 -46 80 -65 117 l-34 68 26 64 c29 75 31 95 8 138 -32 61 -33 115 -6 184 24
61 25 66 14 173 -13 133 -27 172 -71 190 -29 12 -37 11 -83 -10 -37 -16 -82
-25 -152 -30 -109 -8 -300 -44 -354 -66 -50 -21 -49 -10 4 26 46 31 95 96 95
125 0 12 18 15 108 15 89 0 112 -3 140 -20 18 -11 40 -20 49 -20 23 0 149 58
199 91 l41 28 29 -20 c53 -35 77 -26 144 51 49 58 60 77 60 106 l0 36 54 -6
c43 -6 63 -3 97 13 24 11 71 22 103 23 l59 3 63 75 c67 80 80 125 49 166 -8
10 -15 24 -15 30 0 16 129 117 164 129 22 7 33 19 40 43 l9 32 135 0 c118 0
141 -3 179 -21z m10761 -460 c60 -40 82 -74 82 -129 0 -8 16 -38 36 -65 31
-43 35 -55 30 -91 -8 -60 2 -83 41 -99 71 -30 145 -12 192 47 31 39 61 97 61
120 0 13 12 18 48 23 73 10 76 12 137 76 31 33 73 68 94 78 20 11 49 33 65 50
41 42 79 42 126 -3 19 -18 59 -41 88 -51 29 -9 65 -27 80 -40 15 -12 38 -26
52 -30 14 -4 34 -16 44 -27 14 -15 27 -19 53 -15 30 5 36 3 41 -15 2 -11 19
-26 36 -33 29 -12 33 -20 51 -102 20 -87 21 -88 68 -118 46 -30 47 -31 47 -84
0 -45 8 -69 52 -150 l51 -97 -28 -129 c-15 -72 -31 -134 -36 -139 -5 -5 -19
-2 -33 8 -39 25 -80 20 -121 -15 -29 -26 -35 -38 -35 -71 0 -43 7 -60 56 -133
22 -34 38 -75 49 -128 16 -82 35 -121 63 -132 9 -3 53 -9 98 -12 l81 -6 -55
-101 c-30 -55 -66 -117 -81 -136 -14 -19 -48 -67 -76 -106 -60 -86 -196 -244
-210 -244 -5 0 -40 25 -76 54 -37 30 -76 57 -88 61 -29 9 -59 -12 -95 -63 -23
-33 -27 -49 -23 -79 4 -33 -3 -52 -61 -148 -63 -106 -66 -112 -70 -190 -3 -44
1 -127 7 -185 13 -104 13 -106 -19 -235 l-32 -130 6 -255 c4 -140 12 -280 18
-310 11 -54 10 -57 -47 -205 -32 -83 -77 -228 -101 -325 -39 -155 -44 -188
-44 -291 l0 -115 -33 -37 c-18 -20 -38 -37 -44 -37 -16 0 -81 -69 -110 -118
l-25 -43 -32 21 c-17 11 -59 37 -94 57 l-63 38 7 40 c12 66 8 78 -44 125 -56
51 -132 160 -132 188 0 10 4 32 10 48 5 16 14 48 20 72 l11 42 54 0 c67 0 85
20 85 95 0 36 5 56 18 68 84 79 105 97 112 97 12 0 90 148 90 169 0 21 -31 50
-125 118 -58 42 -94 58 -205 92 -74 23 -147 47 -163 53 -22 9 -36 6 -79 -15
l-51 -26 -34 26 c-18 14 -36 37 -39 52 -12 57 -30 85 -94 151 -82 84 -117 102
-205 110 -57 5 -98 19 -220 74 l-150 67 -55 75 c-30 42 -63 80 -72 85 -9 5
-50 9 -91 9 -70 0 -75 -2 -116 -37 l-43 -36 -53 18 c-78 26 -78 26 -66 71 24
85 2 129 -83 169 l-53 25 -112 -15 c-61 -8 -122 -20 -134 -26 -24 -13 -138
-86 -205 -131 -23 -17 -68 -40 -100 -52 -31 -12 -73 -37 -92 -54 -24 -23 -44
-32 -68 -32 -45 0 -66 -13 -93 -57 -12 -21 -24 -40 -26 -43 -2 -2 -24 -5 -48
-5 -40 0 -46 3 -55 28 -8 25 -5 35 22 75 35 51 37 71 23 192 -9 79 -26 113
-64 136 -15 9 -40 41 -56 72 -26 50 -27 60 -22 136 5 68 13 94 47 161 43 87
49 115 24 136 -11 9 -14 22 -9 43 18 84 17 111 -4 133 -20 21 -20 24 -5 63 20
49 13 79 -28 126 -29 33 -31 40 -29 98 2 60 5 66 47 111 48 52 56 86 24 108
-17 12 -18 16 -6 20 22 9 48 66 42 91 -9 37 -44 65 -104 81 -74 21 -102 35
-102 52 0 19 60 124 87 152 13 13 25 34 28 45 11 55 16 72 28 86 20 25 262
170 284 170 19 0 29 -17 63 -107 14 -37 90 -117 132 -139 34 -18 142 -29 190
-20 20 3 62 28 95 54 77 62 116 79 149 63 57 -25 85 -15 192 70 79 63 107 92
127 132 14 28 25 61 25 73 0 13 7 48 15 79 13 53 11 107 -5 130 -4 6 -10 28
-12 50 -5 37 -3 41 28 57 30 16 37 16 75 3 24 -9 78 -15 128 -15 86 0 87 0
121 -35 34 -35 34 -35 123 -35 88 0 91 1 155 41 64 41 207 89 265 89 48 0 107
37 114 70 4 24 12 31 39 36 51 9 112 58 136 109 12 25 25 45 28 45 4 0 35 -19
68 -41z m1680 -199 c17 -16 37 -28 44 -25 27 11 85 -24 156 -94 69 -68 74 -71
120 -71 27 0 96 -5 153 -11 97 -9 110 -9 161 11 34 12 75 39 104 67 46 43 107
83 128 83 5 0 28 10 52 21 l43 22 53 -21 c29 -12 73 -26 98 -33 25 -7 48 -15
52 -18 24 -20 -198 -260 -293 -316 -21 -13 -35 -30 -37 -45 -2 -16 -44 -66
-111 -135 -60 -60 -113 -120 -120 -132 -6 -13 -15 -23 -20 -23 -9 0 -125 87
-156 118 -11 11 -57 60 -102 108 -59 65 -97 97 -140 117 -32 16 -69 35 -83 42
-14 7 -43 18 -65 25 -73 23 -164 70 -175 90 -6 11 -30 31 -54 45 -70 41 -66
58 18 87 61 20 76 30 106 71 19 26 36 47 37 47 1 0 15 -13 31 -30z m-19 -370
c34 -12 96 -39 139 -60 76 -37 86 -45 233 -206 19 -21 63 -59 97 -84 34 -25
61 -48 62 -52 0 -4 -16 -10 -35 -14 -37 -7 -116 -54 -225 -135 -60 -44 -73
-61 -139 -179 -41 -72 -77 -133 -82 -136 -5 -2 -49 -2 -98 2 -100 8 -102 9
-116 99 -10 62 -27 108 -51 135 -12 14 -29 40 -39 59 -15 31 -16 35 -1 50 15
15 19 15 47 -2 53 -30 101 -21 123 22 8 14 28 94 46 178 l33 151 -51 92 c-28
50 -54 100 -57 111 -7 20 -6 20 23 5 16 -8 57 -25 91 -36z m-6208 -1196 c-29
-80 -28 -148 2 -177 27 -28 283 -126 348 -134 83 -10 95 -2 139 90 21 45 52
98 68 117 l30 35 22 -20 c38 -34 60 -92 71 -183 6 -48 16 -93 21 -99 18 -23
65 -15 87 13 12 15 21 33 21 41 0 11 8 13 28 9 92 -18 102 -18 136 2 l34 20
33 -34 c18 -19 38 -34 45 -34 7 0 42 -13 79 -30 37 -16 75 -30 85 -30 21 0 50
36 50 62 0 21 2 21 33 7 21 -9 41 -5 123 26 91 34 105 36 167 30 l67 -6 58 55
57 55 73 2 c56 2 77 -1 89 -14 12 -12 13 -19 6 -29 -6 -7 -14 -35 -18 -61 -6
-39 -4 -52 10 -67 16 -18 17 -22 3 -37 -39 -45 -60 -117 -65 -225 -5 -95 -3
-113 16 -162 15 -35 40 -70 70 -98 48 -44 48 -44 55 -126 6 -79 5 -84 -20
-117 -34 -46 -73 -47 -111 -5 -29 33 -103 80 -126 80 -28 0 -56 -44 -59 -95
-3 -49 -4 -50 -39 -56 -88 -14 -152 -88 -130 -151 8 -22 8 -42 1 -69 -9 -31
-7 -49 10 -96 29 -82 27 -111 -7 -119 -79 -18 -103 -26 -127 -45 l-26 -20 0
23 c0 13 7 68 15 123 18 125 18 120 -1 139 -13 14 -49 16 -242 16 -125 0 -233
-4 -241 -9 -18 -11 -44 -316 -30 -343 9 -16 30 -18 224 -18 118 0 215 -3 215
-7 0 -5 -14 -51 -30 -103 -17 -51 -30 -105 -30 -118 0 -15 17 -40 48 -70 34
-33 52 -61 60 -92 l12 -45 -64 -60 c-87 -82 -116 -124 -116 -167 0 -40 9 -50
63 -69 36 -13 38 -15 31 -44 -5 -16 -9 -63 -9 -103 l0 -72 -65 -42 c-71 -45
-165 -107 -186 -123 -9 -6 -28 -2 -61 15 -43 21 -64 24 -206 28 -128 3 -170 1
-215 -13 -100 -29 -139 -45 -186 -76 -46 -31 -54 -31 -88 -7 -14 10 -24 10
-50 -1 -18 -8 -82 -17 -143 -21 -60 -4 -132 -15 -160 -25 -52 -18 -95 -50 -95
-71 0 -7 -14 -37 -31 -66 -17 -29 -34 -60 -38 -68 -4 -8 -22 -18 -39 -22 -20
-5 -50 -30 -83 -67 l-52 -59 -45 29 c-25 16 -51 29 -57 29 -6 0 -32 13 -58 30
-32 20 -67 32 -105 36 -65 8 -85 17 -236 108 -60 36 -114 66 -120 66 -5 0 -20
10 -34 23 -21 19 -36 22 -133 25 -60 2 -109 7 -109 10 1 4 7 18 15 32 8 14 14
46 15 73 0 47 -1 47 -47 70 l-48 23 3 68 c2 57 -1 73 -17 90 -11 12 -32 54
-46 94 -26 72 -26 76 -14 165 16 120 81 265 127 285 82 35 163 121 181 191 5
20 15 55 21 79 17 65 114 156 189 177 31 9 64 18 73 21 21 6 78 73 78 91 0 7
13 41 29 75 16 35 37 82 47 106 10 24 31 53 48 64 17 12 41 32 54 44 23 22 34
26 113 39 20 3 43 13 51 23 22 25 76 216 83 297 5 48 15 84 32 114 29 50 52
137 53 198 0 42 14 72 77 167 28 40 33 57 33 105 0 46 7 73 35 130 19 39 35
79 35 89 0 19 45 118 63 141 21 25 20 -11 -2 -75z m3024 -939 c46 -18 50 -32
34 -109 -10 -51 -10 -68 0 -79 12 -16 178 -77 207 -77 9 0 36 16 60 35 37 30
49 35 97 35 l54 0 53 -70 c28 -39 62 -77 73 -85 12 -7 85 -41 162 -76 118 -52
152 -63 218 -69 85 -8 87 -9 179 -103 34 -36 60 -71 64 -90 11 -54 32 -85 78
-117 52 -35 91 -38 140 -9 l35 21 133 -42 c106 -33 150 -53 216 -96 45 -31 82
-60 82 -65 0 -17 -50 -109 -59 -109 -4 0 -40 -31 -80 -69 -70 -67 -71 -69 -71
-120 l0 -51 -47 0 c-27 0 -53 -4 -60 -8 -13 -8 -73 -202 -73 -236 0 -29 81
-150 141 -212 34 -35 48 -56 43 -67 -5 -15 -10 -14 -42 8 -42 29 -85 31 -157
10 -84 -25 -106 -37 -116 -62 -5 -14 -28 -32 -61 -46 -86 -38 -102 -73 -62
-132 22 -33 25 -47 21 -85 -4 -30 -1 -51 9 -64 22 -31 17 -46 -17 -46 -80 0
-89 -43 -25 -118 81 -95 75 -171 -20 -272 -35 -37 -64 -74 -64 -81 0 -29 -63
-146 -98 -181 -30 -32 -43 -38 -77 -38 -22 0 -61 -10 -85 -22 l-45 -23 -12
-80 c-20 -140 -42 -186 -96 -209 -46 -19 -65 -44 -96 -128 -15 -41 -44 -100
-65 -130 -27 -41 -38 -71 -44 -114 l-7 -59 -62 -17 c-35 -9 -106 -39 -159 -67
-53 -28 -100 -51 -104 -51 -4 0 -17 9 -30 20 -20 18 -37 20 -144 20 -128 0
-175 -10 -259 -54 -26 -13 -73 -28 -105 -31 -31 -4 -97 -19 -147 -35 -49 -16
-108 -32 -130 -36 -22 -4 -58 -16 -80 -27 -62 -31 -182 -57 -266 -57 -87 0
-93 -4 -106 -70 l-9 -45 -59 -8 c-33 -5 -79 -6 -102 -2 -36 5 -44 10 -49 33
-26 119 -39 142 -107 195 -21 16 -23 32 -9 97 6 30 14 89 18 130 4 54 14 90
35 130 35 67 36 80 4 118 -40 47 -107 76 -164 69 -45 -5 -48 -4 -63 26 -65
128 -77 189 -49 248 29 59 27 93 -5 118 -24 19 -26 25 -20 70 8 61 -3 91 -48
132 -20 18 -36 37 -36 42 0 6 -7 19 -17 29 -13 15 -32 18 -107 18 -52 0 -112
-7 -140 -15 -27 -8 -78 -15 -114 -15 -36 0 -92 -4 -126 -10 -33 -5 -95 -14
-136 -19 -51 -7 -80 -16 -90 -28 -10 -12 -30 -18 -61 -19 l-47 -1 -18 56 c-10
31 -24 63 -31 72 -8 9 -45 20 -95 28 -46 7 -117 19 -158 27 -41 9 -110 19
-153 24 -48 5 -85 14 -96 24 -25 23 -74 20 -129 -8 -26 -13 -71 -31 -101 -41
-45 -14 -55 -15 -62 -4 -13 21 -11 64 6 95 8 16 15 42 15 57 0 19 15 46 48 84
78 93 90 103 115 103 28 0 46 18 82 85 66 125 70 129 111 142 21 6 75 12 120
12 44 1 102 7 129 15 44 14 49 13 74 -5 23 -17 32 -18 57 -9 16 6 38 20 49 30
25 24 103 59 170 76 30 9 106 14 192 14 119 0 151 -3 193 -20 68 -27 110 -25
151 4 19 14 72 48 119 77 47 29 100 63 118 76 l33 25 -2 81 c-2 48 2 91 9 104
7 12 12 38 12 57 0 30 -6 39 -37 61 -21 14 -43 25 -50 25 -7 0 -13 5 -13 10 0
16 89 108 111 115 10 3 28 22 40 41 38 62 10 175 -63 251 l-31 32 29 97 c26
85 34 101 69 129 28 23 58 36 99 44 33 6 61 11 62 11 1 0 10 7 18 16 22 21 21
125 -1 182 -15 41 -15 46 0 72 21 35 22 64 2 80 -41 34 13 80 94 80 50 0 61
14 61 77 0 52 0 52 24 42 13 -6 30 -22 37 -36 16 -29 46 -43 94 -43 36 0 45
-12 45 -65 0 -44 25 -69 59 -60 14 4 52 10 83 14 59 7 87 25 115 72 12 20 27
29 59 34 29 4 59 19 90 45 26 22 61 42 78 46 16 3 66 30 110 59 194 125 201
129 266 141 90 16 125 16 165 -1z m-1665 -542 c0 -5 -7 -51 -15 -103 -8 -52
-15 -98 -15 -102 0 -5 -79 -8 -175 -8 l-176 0 6 78 c3 42 8 92 11 110 l5 32
179 0 c99 0 180 -3 180 -7z m-4134 -830 c44 -20 124 -66 179 -102 113 -74 194
-110 244 -111 21 0 70 18 128 47 l94 47 62 -32 c48 -25 75 -32 119 -32 57 0
58 0 140 74 l83 74 3 -29 c3 -23 -6 -41 -35 -76 -75 -90 -113 -142 -113 -156
0 -19 28 -42 74 -61 30 -13 75 -16 207 -16 l169 0 0 -63 c0 -69 7 -80 68 -111
35 -18 41 -36 17 -56 -10 -8 -15 -30 -15 -61 0 -71 24 -84 155 -84 90 0 102
-2 123 -22 12 -13 28 -23 35 -23 8 0 72 -35 143 -78 130 -78 186 -102 241
-102 17 0 47 -11 67 -25 20 -14 42 -25 48 -25 6 0 31 -12 55 -26 42 -24 43
-27 38 -62 -3 -20 -13 -60 -22 -88 -15 -48 -15 -56 1 -115 29 -106 31 -128 10
-135 -11 -3 -46 -17 -80 -30 -102 -42 -224 -200 -224 -291 0 -7 -21 -34 -46
-60 -65 -66 -84 -100 -84 -154 0 -36 -8 -59 -38 -105 -20 -32 -43 -71 -49 -86
-6 -14 -46 -73 -89 -130 -63 -85 -87 -108 -133 -133 -83 -45 -189 -121 -246
-176 -27 -26 -72 -60 -100 -74 -59 -32 -119 -87 -139 -129 -8 -17 -30 -65 -50
-108 -31 -66 -40 -78 -71 -88 -19 -6 -39 -19 -44 -28 -12 -24 -49 -178 -56
-234 -6 -47 -7 -48 -40 -48 -25 0 -46 10 -81 41 -97 84 -112 85 -235 25 -40
-20 -87 -36 -104 -36 -42 0 -95 19 -95 34 0 6 -10 30 -22 51 -15 28 -23 66
-28 130 -4 50 -15 115 -24 145 -9 30 -23 102 -30 160 -13 98 -27 149 -65 244
-22 55 -61 76 -144 76 -64 0 -69 2 -110 38 -92 83 -114 88 -167 39 -19 -19
-56 -41 -81 -51 -42 -15 -51 -15 -110 -1 -35 8 -94 15 -130 15 -37 0 -85 6
-107 14 -22 8 -62 17 -89 21 -78 11 -85 14 -80 38 3 12 11 119 18 237 10 192
10 221 -5 269 -9 30 -16 71 -16 91 0 21 -18 77 -45 135 -25 55 -45 105 -45
110 0 6 25 36 55 69 72 77 73 99 4 158 l-52 45 18 54 c10 30 42 113 70 184 31
75 56 155 60 190 4 32 30 124 58 203 l50 145 -36 73 c-21 41 -37 76 -37 79 0
2 11 0 25 -5 18 -7 53 -4 121 10 144 30 158 39 199 126 18 41 43 88 55 104 20
28 25 30 89 30 57 0 78 5 137 35 38 19 70 34 70 35 1 0 37 -17 80 -37z m7534
-639 l169 -105 -19 -52 c-37 -99 -50 -192 -50 -353 0 -155 0 -155 -29 -198
-21 -30 -41 -46 -70 -56 -56 -18 -73 -40 -128 -165 -46 -106 -50 -111 -95
-133 -54 -25 -73 -50 -108 -141 -21 -55 -31 -68 -70 -91 -25 -14 -50 -37 -57
-51 -6 -13 -25 -51 -41 -84 l-30 -60 -58 3 c-88 4 -142 23 -191 66 -69 60
-100 164 -69 227 9 18 16 56 16 85 0 53 0 53 38 63 20 6 52 11 70 11 51 0 117
67 164 167 21 46 38 86 38 91 0 4 24 34 54 66 77 83 89 112 84 206 -3 54 -11
88 -25 112 l-20 34 28 17 c23 13 29 23 29 51 0 19 -5 47 -12 63 -6 15 -12 56
-12 89 -1 47 -6 67 -21 84 -21 24 -14 34 35 47 37 9 80 42 80 62 0 12 16 21
58 33 31 8 61 16 65 17 5 0 84 -47 177 -105z m-4883 -685 c6 -6 39 -15 74 -19
35 -5 89 -14 119 -19 30 -5 98 -16 151 -25 53 -9 103 -18 112 -21 15 -6 47
-78 47 -106 0 -31 37 -52 79 -46 28 3 44 1 52 -9 6 -8 21 -14 32 -14 23 0 67
37 67 56 0 7 15 15 33 18 17 2 79 12 137 20 58 9 132 16 165 16 33 0 85 7 115
15 64 17 160 20 160 5 0 -6 18 -29 41 -51 40 -39 40 -41 34 -92 -6 -46 -3 -57
19 -90 25 -36 25 -40 12 -70 -25 -56 -27 -73 -11 -138 15 -66 88 -228 108
-241 6 -4 39 -4 73 -1 53 5 65 3 92 -17 l31 -23 -24 -46 c-16 -31 -29 -84 -40
-166 -32 -235 -35 -207 29 -272 47 -48 57 -65 67 -112 20 -101 23 -105 65
-119 27 -10 71 -12 147 -9 95 4 111 7 133 28 13 12 24 30 24 40 0 37 12 49 49
49 61 0 214 36 273 64 68 32 72 32 93 0 21 -32 88 -63 136 -64 48 0 99 -11 99
-20 0 -4 -33 -12 -72 -18 -128 -20 -178 -39 -230 -92 -57 -56 -62 -91 -23
-148 l25 -37 -39 -7 c-22 -4 -76 -27 -120 -53 -45 -25 -98 -51 -119 -58 -29
-9 -39 -20 -48 -47 -14 -42 -21 -44 -85 -31 -56 12 -144 -3 -222 -38 -23 -10
-71 -31 -107 -46 -127 -53 -251 -128 -294 -178 -46 -54 -183 -148 -255 -176
-101 -38 -206 -126 -222 -184 l-11 -42 -19 37 c-22 42 -45 58 -86 58 -47 0
-62 19 -65 80 -3 55 -3 55 -50 78 -37 18 -69 25 -157 29 -62 3 -114 10 -117
15 -3 5 2 30 11 57 16 48 15 51 -9 110 -14 34 -48 91 -77 127 -41 51 -50 70
-45 89 3 14 9 36 12 49 4 17 -1 35 -14 53 -13 20 -21 53 -26 112 -6 79 -10 89
-50 146 -25 33 -63 78 -85 98 l-41 37 -176 0 -176 0 -37 29 c-20 16 -56 34
-81 41 -25 6 -65 23 -89 37 -39 23 -50 25 -112 19 -61 -6 -75 -4 -136 22 -127
55 -175 60 -251 25 -28 -12 -45 -13 -100 -4 -37 7 -89 15 -116 19 l-48 7 53
37 c30 20 77 47 105 62 28 14 54 31 57 38 2 7 40 61 83 120 121 164 174 260
174 314 0 50 29 105 80 147 38 32 60 73 60 110 0 36 40 100 99 158 35 35 63
51 116 68 86 28 109 51 101 102 l-6 37 98 40 c103 43 131 49 149 31z m3978
-691 c5 -20 29 -53 64 -88 62 -61 125 -89 212 -95 28 -2 53 -6 55 -8 3 -2 -7
-28 -21 -58 -22 -47 -25 -68 -25 -164 l0 -110 -46 -28 c-25 -15 -67 -32 -92
-38 -161 -37 -232 -75 -309 -163 -30 -33 -33 -43 -33 -99 0 -94 -3 -96 -140
-86 -179 12 -474 11 -524 -3 -41 -11 -49 -10 -98 15 -63 32 -101 34 -162 7
-43 -18 -48 -18 -83 -3 -65 27 -172 4 -230 -50 -24 -22 -32 -11 -10 14 30 37
88 58 221 79 38 6 77 15 87 21 36 19 36 119 -1 139 -10 5 -57 14 -106 20 -49
5 -94 16 -102 24 -12 12 -5 17 50 36 34 12 93 25 131 30 45 5 91 20 140 44 72
35 76 36 190 36 64 0 118 -4 122 -9 3 -5 22 -15 42 -22 35 -11 42 -9 162 49
69 34 152 69 183 78 84 24 91 31 96 105 4 52 12 75 44 125 21 34 49 91 61 125
19 54 29 68 62 86 22 13 43 23 47 23 3 0 10 -14 13 -32z m-4964 -673 c62 -6
82 -4 113 10 42 20 114 15 154 -11 53 -35 130 -53 196 -47 56 5 67 3 104 -21
23 -14 54 -26 70 -26 18 0 44 -13 72 -37 l43 -37 177 3 c202 3 179 12 265 -99
41 -53 42 -58 47 -140 3 -58 10 -93 22 -112 13 -21 15 -31 7 -47 -23 -43 -13
-77 44 -143 30 -35 63 -86 75 -113 19 -45 20 -51 5 -101 -29 -101 2 -128 156
-137 143 -9 154 -14 162 -71 13 -90 40 -116 123 -116 18 0 29 -9 41 -35 9 -19
15 -37 12 -39 -2 -2 -28 1 -58 7 -52 10 -55 9 -75 -14 -12 -14 -30 -51 -40
-83 l-20 -58 23 -43 23 -43 -43 -44 -44 -43 -116 -11 c-114 -10 -118 -11 -193
-58 -86 -54 -93 -54 -171 3 -50 36 -51 36 -150 36 -64 0 -108 5 -123 13 -37
21 -101 6 -142 -33 -21 -20 -69 -46 -119 -65 -100 -39 -131 -66 -161 -142 -12
-32 -27 -55 -33 -53 -7 3 -72 14 -145 25 -107 16 -144 26 -188 51 -70 40 -189
67 -329 75 -96 5 -117 10 -163 36 -51 28 -56 29 -107 17 -65 -14 -75 -9 -100
59 -10 26 -31 79 -47 117 -68 166 -74 170 -215 170 -63 0 -106 4 -113 12 -9 8
-8 24 3 65 8 29 23 89 32 133 9 44 28 107 42 140 18 46 26 90 33 193 5 73 12
137 15 142 3 6 23 10 44 10 51 0 62 16 71 103 4 39 16 102 26 139 16 58 22 68
45 73 38 9 60 38 103 140 21 50 47 102 57 117 19 26 98 78 119 78 7 0 31 17
55 38 l42 37 99 -7 c54 -3 133 -9 175 -13z m1639 -1753 c0 -21 -7 -88 -16
-148 -13 -92 -13 -134 -4 -264 13 -189 24 -248 52 -277 18 -20 20 -30 14 -84
-4 -44 -15 -76 -35 -108 -16 -25 -39 -80 -52 -121 -50 -168 -77 -207 -177
-262 -76 -42 -167 -124 -243 -218 l-36 -45 -48 15 c-27 9 -50 20 -52 27 -2 6
7 23 20 39 15 18 26 47 29 77 4 36 14 57 36 80 62 66 74 136 25 151 -47 13
-143 26 -201 26 -88 0 -182 48 -229 118 -18 26 -33 52 -33 57 0 11 -81 96
-159 168 -9 8 -25 27 -35 42 -20 29 -149 95 -184 95 -32 0 -99 27 -120 48 -11
11 -41 32 -67 48 -42 24 -61 28 -179 35 -137 8 -180 17 -218 43 -13 9 -43 16
-72 16 -37 0 -56 5 -73 22 l-23 22 -53 -23 c-28 -13 -65 -26 -80 -28 l-28 -5
21 41 c17 32 20 49 15 83 -4 23 -12 50 -18 60 -8 13 -6 38 9 100 l21 82 51 13
c49 13 54 12 104 -13 44 -21 75 -27 178 -35 159 -11 233 -28 304 -68 42 -24
80 -36 149 -47 50 -7 122 -19 158 -25 92 -16 114 -9 142 49 13 26 27 59 30 73
7 29 28 41 142 84 39 14 85 40 102 57 33 32 33 32 82 19 27 -7 81 -11 119 -10
65 3 74 1 128 -33 65 -39 126 -60 152 -51 9 3 49 26 88 49 62 38 80 45 155 53
46 4 90 9 97 10 8 1 12 -13 12 -37z m-2020 -511 c30 -4 69 -14 85 -23 45 -23
117 -36 240 -43 91 -5 117 -11 151 -30 23 -14 44 -31 47 -39 6 -16 106 -56
140 -56 43 0 145 -57 162 -90 9 -17 29 -39 44 -48 39 -24 124 -119 149 -167
57 -109 152 -164 305 -176 55 -4 112 -11 129 -14 l30 -7 -30 -32 c-39 -41 -52
-68 -52 -108 0 -21 -10 -48 -25 -68 -58 -79 -50 -141 22 -155 21 -4 46 -11 55
-16 17 -9 17 -12 -3 -52 -12 -23 -47 -80 -78 -127 -54 -80 -89 -154 -142 -295
-32 -87 -82 -174 -177 -310 -92 -133 -269 -321 -341 -363 -290 -168 -379 -259
-476 -488 -30 -68 -61 -148 -69 -177 -8 -29 -25 -66 -38 -83 -56 -75 -156
-178 -195 -201 -66 -38 -73 -27 -73 119 0 104 2 119 18 125 39 14 81 54 88 85
3 18 21 51 39 73 61 76 54 105 -30 130 -64 18 -143 72 -144 97 -1 28 -32 100
-63 145 -31 46 -130 111 -212 139 -36 13 -53 26 -73 58 -92 146 -90 143 -130
150 -21 3 -65 20 -98 36 -33 17 -71 30 -85 30 -35 0 -42 7 -88 85 -76 131 -88
145 -124 145 -46 0 -94 -32 -118 -80 -11 -22 -25 -40 -30 -40 -6 0 -10 22 -10
50 0 27 -5 59 -11 72 -12 23 -278 270 -347 321 -35 26 -40 27 -104 19 -54 -7
-76 -15 -107 -40 -26 -21 -51 -32 -71 -32 l-31 0 33 46 c18 25 45 62 61 84 15
21 51 55 80 76 28 20 56 44 61 52 5 8 24 32 43 52 18 21 57 76 86 122 94 151
116 182 185 253 37 39 85 92 106 119 21 26 53 54 70 61 42 18 75 51 92 91 8
19 18 34 23 34 5 0 34 27 66 60 41 41 75 66 114 81 71 28 89 44 112 96 11 25
26 44 41 48 61 19 197 81 228 105 19 14 51 32 70 40 19 7 51 24 70 37 38 25
65 29 76 12 9 -15 94 -5 131 15 15 9 37 13 48 10 11 -3 45 -9 75 -13z"/>
</g>
</svg>
